<?xml version="1.0"?>
<!-- Generated by SVGo (float) -->
<svg width="11.00in" height="8.50in"
     viewBox='0 0 1100.000000 850.000000'
     xmlns="http://www.w3.org/2000/svg"
     xmlns:xlink="http://www.w3.org/1999/xlink">
<marker id="Triangle" refX="9.00" refY="3.00" markerWidth="10.00" markerHeight="6.00" viewBox='0 0 10 6' markerUnits='strokeWidth' orient='auto' fill='red' >
<path d="M 0 0 L 10 3 L 0 6 z" />
</marker>
<g transform="translate(25.000000,25.000000)">
<g transform="scale(1.303137)">
<g transform="translate(222.703273,211.803399)">
<path d="M 275.276384 161.803399 180.170732 130.901699L 85.065081 161.803399L 26.286556 80.901699L 26.286556 180.901699L -68.819096 211.803399L -127.597621 130.901699L -68.819096 50.000000L -163.924748 80.901699L -222.703273 0.000000L -163.924748 -80.901699L -68.819096 -50.000000L -127.597621 -130.901699L -68.819096 -211.803399L 26.286556 -180.901699L 26.286556 -80.901699L 85.065081 -161.803399L 180.170732 -130.901699L 180.170732 -30.901699L 85.065081 0.000000L 180.170732 30.901699L 275.276384 -0.000000L 334.054909 80.901699L 334.054909 -19.098301L 429.160561 -50.000000L 487.939086 30.901699L 429.160561 111.803399L 524.266213 80.901699L 583.044738 161.803399L 524.266213 242.705098L 429.160561 211.803399L 487.939086 292.705098L 429.160561 373.606798L 334.054909 342.705098L 334.054909 242.705098L 275.276384 323.606798L 180.170732 292.705098L 180.170732 192.705098L 275.276384 161.803399" style="stroke:#000;stroke-width:1;fill:none"/>
<line x1="180.17" y1="30.90" x2="180.17" y2="130.90" style="stroke:#000;stroke-width:1;stroke-dasharray:1 4"/>
<line x1="85.07" y1="0.00" x2="26.29" y2="80.90" style="stroke:#000;stroke-width:1;stroke-dasharray:1 4"/>
<line x1="429.16" y1="111.80" x2="334.05" y2="80.90" style="stroke:#000;stroke-width:1;stroke-dasharray:1 4"/>
<line x1="26.29" y1="-80.90" x2="85.07" y2="0.00" style="stroke:#000;stroke-width:1;stroke-dasharray:1 4"/>
<line x1="-68.82" y1="-50.00" x2="26.29" y2="-80.90" style="stroke:#000;stroke-width:1;stroke-dasharray:1 4"/>
<line x1="334.05" y1="80.90" x2="275.28" y2="161.80" style="stroke:#000;stroke-width:1;stroke-dasharray:1 4"/>
<line x1="-68.82" y1="-50.00" x2="-68.82" y2="50.00" style="stroke:#000;stroke-width:1;stroke-dasharray:1 4"/>
<line x1="429.16" y1="211.80" x2="334.05" y2="242.71" style="stroke:#000;stroke-width:1;stroke-dasharray:1 4"/>
<line x1="-68.82" y1="50.00" x2="26.29" y2="80.90" style="stroke:#000;stroke-width:1;stroke-dasharray:1 4"/>
<line x1="334.05" y1="242.71" x2="275.28" y2="161.80" style="stroke:#000;stroke-width:1;stroke-dasharray:1 4"/>
<line x1="429.16" y1="211.80" x2="429.16" y2="111.80" style="stroke:#000;stroke-width:1;stroke-dasharray:1 4"/>
</g>
</g>
</g>
</svg>
